subject11_noload_free_trial03_ground_reaction
version=1
nRows=39
nColumns=19
inDegrees=no
endheader
time	ground_force_r_vx	ground_force_r_vy	ground_force_r_vz	ground_force_r_px	ground_force_r_py	ground_force_r_pz	ground_torque_r_x	ground_torque_r_y	ground_torque_r_z	ground_force_l_vx	ground_force_l_vy	ground_force_l_vz	ground_force_l_px	ground_force_l_py	ground_force_l_pz	ground_torque_l_x	ground_torque_l_y	ground_torque_l_z
1.194500	0.000000	0.000000	0.000000	2.850244	0.000000	0.269038	0.000000	0.000000	0.000000	-19.520596	649.377553	33.510870	0.891437	0.000000	-0.323646	0.000000	-0.678633	0.000000
1.195000	0.000000	0.000000	0.000000	2.853737	0.000000	0.269361	0.000000	0.000000	0.000000	-19.311043	649.362197	33.476866	0.891632	0.000000	-0.323652	0.000000	-0.690371	0.000000
1.195500	0.000000	0.000000	0.000000	2.857201	0.000000	0.269677	0.000000	0.000000	0.000000	-19.101280	649.351166	33.444646	0.891826	0.000000	-0.323658	0.000000	-0.702116	0.000000
1.196000	0.000000	0.000000	0.000000	2.860637	0.000000	0.269987	0.000000	0.000000	0.000000	-18.891283	649.344481	33.414180	0.892019	0.000000	-0.323664	0.000000	-0.713870	0.000000
1.196500	0.000000	0.000000	0.000000	2.864044	0.000000	0.270290	0.000000	0.000000	0.000000	-18.681028	649.342161	33.385440	0.892212	0.000000	-0.323671	0.000000	-0.725636	0.000000
1.197000	0.000000	0.000000	0.000000	2.867423	0.000000	0.270586	0.000000	0.000000	0.000000	-18.470494	649.344229	33.358397	0.892404	0.000000	-0.323678	0.000000	-0.737415	0.000000
1.197500	0.000000	0.000000	0.000000	2.870773	0.000000	0.270876	0.000000	0.000000	0.000000	-18.259657	649.350709	33.333021	0.892596	0.000000	-0.323685	0.000000	-0.749208	0.000000
1.198000	0.000000	0.000000	0.000000	2.874095	0.000000	0.271159	0.000000	0.000000	0.000000	-18.048497	649.361626	33.309284	0.892788	0.000000	-0.323692	0.000000	-0.761019	0.000000
1.198500	0.000000	0.000000	0.000000	2.877388	0.000000	0.271436	0.000000	0.000000	0.000000	-17.836994	649.377008	33.287154	0.892979	0.000000	-0.323700	0.000000	-0.772848	0.000000
1.199000	0.000000	0.000000	0.000000	2.880653	0.000000	0.271706	0.000000	0.000000	0.000000	-17.625127	649.396883	33.266602	0.893169	0.000000	-0.323707	0.000000	-0.784698	0.000000
1.199500	0.000000	0.000000	0.000000	2.883889	0.000000	0.271970	0.000000	0.000000	0.000000	-17.412877	649.421280	33.247594	0.893359	0.000000	-0.323715	0.000000	-0.796571	0.000000
1.200000	0.000000	0.000000	0.000000	2.887096	0.000000	0.272227	0.000000	0.000000	0.000000	-17.200226	649.450231	33.230100	0.893549	0.000000	-0.323723	0.000000	-0.808469	0.000000
1.200500	0.000000	0.000000	0.000000	2.890274	0.000000	0.272478	0.000000	0.000000	0.000000	-16.987156	649.483766	33.214088	0.893738	0.000000	-0.323731	0.000000	-0.820394	0.000000
1.201000	0.000000	0.000000	0.000000	2.893424	0.000000	0.272722	0.000000	0.000000	0.000000	-16.773651	649.521919	33.199526	0.893926	0.000000	-0.323740	0.000000	-0.832348	0.000000
1.201500	0.000000	0.000000	0.000000	2.896545	0.000000	0.272959	0.000000	0.000000	0.000000	-16.559695	649.564726	33.186380	0.894114	0.000000	-0.323749	0.000000	-0.844333	0.000000
1.202000	0.000000	0.000000	0.000000	2.899637	0.000000	0.273190	0.000000	0.000000	0.000000	-16.345271	649.612224	33.174618	0.894302	0.000000	-0.323757	0.000000	-0.856351	0.000000
1.202500	0.000000	0.000000	0.000000	2.902701	0.000000	0.273414	0.000000	0.000000	0.000000	-16.130365	649.664452	33.164205	0.894489	0.000000	-0.323767	0.000000	-0.868404	0.000000
1.203000	0.000000	0.000000	0.000000	2.905735	0.000000	0.273632	0.000000	0.000000	0.000000	-15.914960	649.721451	33.155108	0.894675	0.000000	-0.323776	0.000000	-0.880492	0.000000
1.203500	0.000000	0.000000	0.000000	2.908741	0.000000	0.273843	0.000000	0.000000	0.000000	-15.699042	649.783262	33.147292	0.894861	0.000000	-0.323785	0.000000	-0.892618	0.000000
1.204000	0.000000	0.000000	0.000000	2.911718	0.000000	0.274048	0.000000	0.000000	0.000000	-15.482596	649.849928	33.140724	0.895046	0.000000	-0.323795	0.000000	-0.904782	0.000000
1.204500	0.000000	0.000000	0.000000	2.914666	0.000000	0.274246	0.000000	0.000000	0.000000	-15.265610	649.921493	33.135369	0.895231	0.000000	-0.323805	0.000000	-0.916987	0.000000
1.205000	0.000000	0.000000	0.000000	2.917585	0.000000	0.274437	0.000000	0.000000	0.000000	-15.048070	649.998003	33.131192	0.895416	0.000000	-0.323815	0.000000	-0.929233	0.000000
1.205500	0.000000	0.000000	0.000000	2.920476	0.000000	0.274622	0.000000	0.000000	0.000000	-14.829965	650.079506	33.128160	0.895600	0.000000	-0.323825	0.000000	-0.941523	0.000000
1.206000	0.000000	0.000000	0.000000	2.923337	0.000000	0.274800	0.000000	0.000000	0.000000	-14.611283	650.166048	33.126238	0.895783	0.000000	-0.323835	0.000000	-0.953859	0.000000
1.206500	0.000000	0.000000	0.000000	2.926169	0.000000	0.274972	0.000000	0.000000	0.000000	-14.392013	650.257681	33.125391	0.895966	0.000000	-0.323845	0.000000	-0.966242	0.000000
1.207000	0.000000	0.000000	0.000000	2.928972	0.000000	0.275137	0.000000	0.000000	0.000000	-14.172142	650.354453	33.125586	0.896148	0.000000	-0.323856	0.000000	-0.978676	0.000000
1.207500	0.000000	0.000000	0.000000	2.931746	0.000000	0.275295	0.000000	0.000000	0.000000	-13.951659	650.456414	33.126787	0.896330	0.000000	-0.323867	0.000000	-0.991161	0.000000
1.208000	0.000000	0.000000	0.000000	2.934491	0.000000	0.275447	0.000000	0.000000	0.000000	-13.730553	650.563614	33.128960	0.896512	0.000000	-0.323877	0.000000	-1.003700	0.000000
1.208500	0.000000	0.000000	0.000000	2.937207	0.000000	0.275593	0.000000	0.000000	0.000000	-13.508814	650.676107	33.132071	0.896693	0.000000	-0.323888	0.000000	-1.016295	0.000000
1.209000	0.000000	0.000000	0.000000	2.939894	0.000000	0.275732	0.000000	0.000000	0.000000	-13.286435	650.793944	33.136087	0.896873	0.000000	-0.323899	0.000000	-1.028949	0.000000
1.209500	0.000000	0.000000	0.000000	2.942552	0.000000	0.275864	0.000000	0.000000	0.000000	-13.063409	650.917178	33.140975	0.897053	0.000000	-0.323910	0.000000	-1.041664	0.000000
1.210000	0.000000	0.000000	0.000000	2.945180	0.000000	0.275989	0.000000	0.000000	0.000000	-12.839732	651.045862	33.146701	0.897232	0.000000	-0.323922	0.000000	-1.054442	0.000000
1.210500	0.000000	0.000000	0.000000	2.947780	0.000000	0.276108	0.000000	0.000000	0.000000	-12.615401	651.180050	33.153236	0.897411	0.000000	-0.323933	0.000000	-1.067286	0.000000
1.211000	0.000000	0.000000	0.000000	2.950350	0.000000	0.276221	0.000000	0.000000	0.000000	-12.390413	651.319795	33.160549	0.897589	0.000000	-0.323944	0.000000	-1.080199	0.000000
1.211500	0.000000	0.000000	0.000000	2.952890	0.000000	0.276327	0.000000	0.000000	0.000000	-12.164771	651.465149	33.168612	0.897767	0.000000	-0.323955	0.000000	-1.093184	0.000000
1.212000	0.000000	0.000000	0.000000	2.955402	0.000000	0.276426	0.000000	0.000000	0.000000	-11.938475	651.616165	33.177396	0.897945	0.000000	-0.323967	0.000000	-1.106242	0.000000
1.212500	0.000000	0.000000	0.000000	2.957884	0.000000	0.276518	0.000000	0.000000	0.000000	-11.711531	651.772896	33.186873	0.898121	0.000000	-0.323978	0.000000	-1.119377	0.000000
1.213000	0.000000	0.000000	0.000000	2.960337	0.000000	0.276605	0.000000	0.000000	0.000000	-11.483944	651.935393	33.197017	0.898298	0.000000	-0.323989	0.000000	-1.132590	0.000000
1.213500	0.000000	0.000000	0.000000	2.962761	0.000000	0.276684	0.000000	0.000000	0.000000	-11.255721	652.103711	33.207801	0.898474	0.000000	-0.324001	0.000000	-1.145884	0.000000
